<svg width="62" height="62" viewBox="0 0 62 62" fill="none" xmlns="http://www.w3.org/2000/svg">
<path fill-rule="evenodd" clip-rule="evenodd" d="M2.5835 7.33155C2.5835 6.07225 3.08375 4.86454 3.9742 3.97409C4.86466 3.08363 6.07237 2.58338 7.33166 2.58338H54.6635C55.2876 2.58236 55.9057 2.70444 56.4825 2.94264C57.0594 3.18083 57.5835 3.53046 58.0251 3.9715C58.4666 4.41254 58.8168 4.93634 59.0556 5.51291C59.2944 6.08947 59.4172 6.70748 59.4168 7.33155V54.6634C59.4175 55.2876 59.2951 55.9058 59.0566 56.4826C58.8182 57.0594 58.4683 57.5836 58.027 58.0251C57.5858 58.4666 57.0618 58.8167 56.4851 59.0555C55.9084 59.2943 55.2903 59.417 54.6661 59.4167H7.33166C6.70791 59.4167 6.09026 59.2938 5.51402 59.055C4.93778 58.8162 4.41423 58.4663 3.97329 58.0251C3.53235 57.5839 3.18265 57.0602 2.94419 56.4838C2.70572 55.9074 2.58316 55.2897 2.5835 54.666V7.33155ZM25.0792 24.2524H32.7749V28.117C33.8857 25.8954 36.7274 23.8959 40.9977 23.8959C49.1842 23.8959 51.1243 28.3211 51.1243 36.4405V51.4807H42.8396V38.2902C42.8396 33.666 41.7287 31.0569 38.9077 31.0569C34.994 31.0569 33.3665 33.8701 33.3665 38.2902V51.4807H25.0792V24.2524ZM10.8708 51.1268H19.1582V23.8959H10.8708V51.1242V51.1268ZM20.3439 15.0144C20.3595 15.7239 20.2333 16.4295 19.9725 17.0896C19.7118 17.7497 19.3218 18.3511 18.8255 18.8585C18.3292 19.3658 17.7366 19.7689 17.0823 20.0441C16.4281 20.3194 15.7255 20.4611 15.0158 20.4611C14.306 20.4611 13.6035 20.3194 12.9492 20.0441C12.295 19.7689 11.7024 19.3658 11.2061 18.8585C10.7098 18.3511 10.3198 17.7497 10.059 17.0896C9.7983 16.4295 9.67204 15.7239 9.68766 15.0144C9.71833 13.6216 10.2932 12.2962 11.289 11.322C12.2849 10.3478 13.6227 9.80229 15.0158 9.80229C16.4089 9.80229 17.7467 10.3478 18.7425 11.322C19.7384 12.2962 20.3132 13.6216 20.3439 15.0144V15.0144Z" fill="black"/>
</svg>
