<svg width="62" height="62" viewBox="0 0 62 62" fill="none" xmlns="http://www.w3.org/2000/svg">
<g clip-path="url(#clip0_253_6)">
<path d="M37.8103 23.157C36.4966 23.157 35.524 23.4883 34.7626 23.9068C34.6405 23.4728 34.2395 23.155 33.7667 23.25H27.9852C27.4136 23.155 26.9506 23.6181 27.1269 24.2187V45.5312C26.9506 46.0737 27.4136 46.5387 27.9852 46.5H33.7667C34.3383 46.5387 34.8013 46.0737 34.8013 45.5021L34.7994 32.6216C34.7975 32.6158 34.7761 31.9997 35.1656 31.5754C35.4775 31.2383 36.0142 31.0658 36.7563 31.0658C37.9924 31.0658 38.5426 31.5715 38.748 32.703V45.5021C38.5446 46.0737 39.0076 46.5387 39.5792 46.5H45.6726C46.2442 46.5387 46.7073 46.0737 46.5019 45.5021V32.2729C46.7053 25.5459 41.9139 23.157 37.8103 23.157V23.157ZM44.6361 44.5625H40.6138V32.703C40.6138 30.4148 39.1355 28.9966 36.7582 28.9966C35.4136 28.9966 34.3673 29.3918 33.6466 30.1707C32.6449 31.2557 32.7224 32.6313 32.9375 32.9375V44.5625H29.0198V25.2262H32.7321V25.8772C32.7306 26.0711 32.7838 26.2616 32.8856 26.4266C32.9875 26.5916 33.1338 26.7246 33.3079 26.8102C33.4819 26.8958 33.6765 26.9305 33.8694 26.9105C34.0623 26.8904 34.2456 26.8163 34.3983 26.6968L34.6696 26.4875C35.4543 25.8695 36.2661 25.2281 37.8122 25.2281C39.4126 25.2281 44.638 25.7377 44.638 32.2748V44.5625H44.6361ZM21.3125 13.4966C19.1386 13.4966 17.3716 15.2636 17.3716 17.4375C17.3716 19.6113 19.1386 21.3783 21.3125 21.3783C23.4863 21.3783 25.2533 19.6113 25.2533 17.4375C25.2533 15.2636 23.4863 13.4966 21.3125 13.4966ZM21.3125 19.3091C20.2817 19.3091 19.4408 18.4682 19.4408 17.4375C19.4408 16.4067 20.2817 15.5658 21.3125 15.5658C22.3432 15.5658 23.1841 16.4067 23.1841 17.4375C23.1841 18.4682 22.3432 19.3091 21.3125 19.3091ZM24.0792 23.155H18.3287C17.7571 23.155 17.2941 23.6181 17.4375 24.2187V45.5312C17.2941 46.0737 17.7571 46.5387 18.3287 46.5H24.0792C24.6508 46.5387 25.1138 46.0737 25.1138 45.5021V24.1896C25.1138 23.9152 25.0048 23.6521 24.8108 23.4581C24.6168 23.264 24.3536 23.155 24.0792 23.155ZM23.25 44.5625H19.3633V25.2262H23.25V44.5625Z" fill="#D9D9D9"/>
<path d="M31 -0.065918C13.8686 -0.065918 -0.065918 13.8686 -0.065918 31C-0.065918 48.1313 13.8686 62.0658 31 62.0658C48.1313 62.0658 62.0658 48.1313 62.0658 31C62.0658 13.8686 48.1313 -0.065918 31 -0.065918ZM31 59.9966C15.0117 59.9966 2.00333 46.9882 2.00333 31C2.00333 15.0117 15.0117 2.00333 31 2.00333C46.9882 2.00333 59.9966 15.0117 59.9966 31C59.9966 46.9882 46.9882 59.9966 31 59.9966Z" fill="#D9D9D9"/>
</g>
<defs>
<clipPath id="clip0_253_6">
<rect width="62" height="62" fill="white"/>
</clipPath>
</defs>
</svg>
