
<svg version="1.0" xmlns="http://www.w3.org/2000/svg"
 width="500.000000pt" height="500.000000pt" viewBox="0 0 500.000000 500.000000"
 preserveAspectRatio="xMidYMid meet">

<g transform="translate(0.000000,500.000000) scale(0.100000,-0.100000)"
fill="#000000" stroke="none">
<path d="M4114 2990 c-31 -12 -64 -59 -64 -90 0 -63 74 -111 139 -92 48 15 70
40 78 85 5 32 1 41 -30 72 -36 36 -76 44 -123 25z m107 -39 c35 -36 37 -64 4
-96 -18 -18 -35 -25 -65 -25 -51 0 -80 27 -80 75 0 29 6 39 33 55 44 28 74 25
108 -9z"/>
</g>
</svg>
